<svg xmlns="http://www.w3.org/2000/svg" viewBox="0 0 118.95 56.2"><defs><style>.cls-1{fill:#fff}</style></defs><g id="Layer_2" data-name="Layer 2"><g id="svg2"><path id="path3532" d="M62.49 39.42a3.78 3.78 0 01-2.18-.91l-2.2-2.21-.29-.3-14.69-14.84 2-2L64.77 39a4.89 4.89 0 01-2.28.41m-7.42 0a3.78 3.78 0 01-2.18-.91l-2.2-2.21-.29-.29-11-11 1.8-1.83 15.89 16a4.79 4.79 0 01-2 .31m-7.41 0a3.78 3.78 0 01-2.18-.91l-2.2-2.29L43 36l-7.25-7.31 1.8-1.82 12.16 12.24a4.84 4.84 0 01-2.05.31M54.17 3a4.9 4.9 0 012.28-.4 3.71 3.71 0 012.18.91l2.2 2.22.31.31 14.68 14.8-2 2L54.17 3zm9.7-.4a3.71 3.71 0 012.18.91l2.2 2.22.32.31 11 11.06-1.81 1.82-15.89-16a4.84 4.84 0 012-.31m7.42 0a3.71 3.71 0 012.18.91l2.2 2.22L76 6l7.25 7.32-1.79 1.82L69.24 2.87a4.81 4.81 0 012.05-.31m20.89 16.62l-19 19.31a4.05 4.05 0 01-1 .64 4.5 4.5 0 01-3.07 0 4.05 4.05 0 01-1-.64L47 17.23l.85-.86A4.12 4.12 0 0150.44 15a2.54 2.54 0 011.47.39l12.55 12.74.06-.06a5.28 5.28 0 003.9 1.67A7 7 0 0073 27.51l13.85-13.87L75.38 1.58A5.23 5.23 0 0071.4 0a8 8 0 00-4.19.9A6 6 0 0064 0a8 8 0 00-4.2.9 6 6 0 00-3.23-.9 7.77 7.77 0 00-4.36 1 5.85 5.85 0 00-3.38-1h-1a5.19 5.19 0 00-4 1.57l-19 19.3 1.91 1.92 19-19.32a3.74 3.74 0 011-.64 4.55 4.55 0 011.54-.28 4.66 4.66 0 011.55.28 3.69 3.69 0 011 .64l21 21.26-.86.87a4.18 4.18 0 01-2.46 1.4 3.56 3.56 0 01-2.59-1.33l-11-11.15a5.57 5.57 0 00-4.42-2.23 7 7 0 00-4.5 2.17L32.1 28.33 43.57 40.4a5.27 5.27 0 004 1.57 8.14 8.14 0 004.19-.91A6.05 6.05 0 0055 42a8.16 8.16 0 004.2-.91 6 6 0 003.22.91 7.77 7.77 0 004.36-1 5.84 5.84 0 003.37 1h1a5.28 5.28 0 004-1.57l19-19.3-1.9-1.92z" class="cls-1"/><path id="path3536" d="M5.68 53.65c0 .77-.45 1-1.09 1H2.83a.12.12 0 010-.08v-4.94s0-.09 0-.11a.2.2 0 01.09 0h1.67a.72.72 0 01.73.66v.43c0 .21-.32.75-.74.73h-.76a.23.23 0 00-.24.23v.83a.23.23 0 00.24.23h.85c.8.05 1 .51 1 .7v.33zm.24-1.78a.09.09 0 110-.18h.21a1.44 1.44 0 001.29-1.44v-.53a1.45 1.45 0 00-1.45-1.46H.07a.08.08 0 00-.07.07v.92a.13.13 0 000 .08h.09c.27 0 .7.25.7.43v4.57c0 .2-.4.38-.71.43a.28.28 0 00-.08 0 .14.14 0 000 .11v.89a.08.08 0 00.07.07h5.85a1.86 1.86 0 001.75-1.81v-.75c0-.81-.45-1.46-1.75-1.46" class="cls-1"/><path id="path3540" d="M110.23 53.65c0 .77-.47 1-1.09 1h-1.77a.12.12 0 010-.08v-4.94s0-.09 0-.11a.24.24 0 01.1 0h1.68a.71.71 0 01.72.66v.43c0 .21-.31.75-.74.73h-.76a.23.23 0 00-.24.23v.83a.23.23 0 00.24.23h.85c.81.05 1 .51 1 .7v.33zm.23-1.78a.09.09 0 110-.18h.22a1.45 1.45 0 001.29-1.44v-.53a1.46 1.46 0 00-1.46-1.46h-5.85a.08.08 0 00-.07.07v.92a.11.11 0 000 .08h.08c.27 0 .7.25.7.43v4.57c0 .2-.39.38-.71.43h-.09a.31.31 0 000 .11v.89a.08.08 0 00.07.07h5.85a1.86 1.86 0 001.75-1.81v-.75c0-.81-.45-1.46-1.75-1.46" class="cls-1"/><path id="path3544" d="M23.3 48.24H21c-.21 0-.23 0-.24.24V49c0 .12.22.07.22.07a.24.24 0 01.19.11v.09a.71.71 0 01-.09.35l-.8 1.38a.28.28 0 01-.27.18.28.28 0 01-.23-.16l-.88-1.28a.6.6 0 010-.51.4.4 0 01.28-.13c.1 0 .15 0 .15-.19v-.46a.16.16 0 00-.16-.18h-3c-.13 0-.23 0-.23.15V49c0 .22 0 .26.12.27a1 1 0 01.55.27l2.08 3v2c0 .11-.23.17-.4.2h-.2a.07.07 0 00-.07.06v1s0 .07.07.07h3.27s.06 0 .07-.07v-1a.09.09 0 00-.07-.06h-.09c-.25 0-.59-.2-.61-.32v-1.73l1.71-2.64s.3-.41.39-.51a.66.66 0 01.32-.22h.26c.19 0 .19-.07.19-.2v-.6c0-.22-.06-.24-.24-.24" class="cls-1"/><path id="path3548" d="M96 54.67v-1.59a.23.23 0 00-.23-.23h-.57a.23.23 0 00-.23.23v.3a1.08 1.08 0 01-.11.41 1.52 1.52 0 01-.7.64 2.22 2.22 0 01-.88.1h-.81c-.09-.06-.15-.12-.15-.19v-4.56c0-.19.41-.37.73-.42a.09.09 0 00.07 0 .08.08 0 000-.07v-.93a.07.07 0 00-.07-.07h-3.14a.07.07 0 00-.07.07v.93a.14.14 0 000 .07.09.09 0 00.07 0c.32 0 .74.23.74.42v4.56c0 .17-.42.36-.74.41a.09.09 0 00-.07 0 .14.14 0 000 .07v.93a.07.07 0 00.07.07h5.92a.23.23 0 00.24-.23v-.85a.17.17 0 000-.1" class="cls-1"/><path id="path3552" d="M72 54.67v-1.59a.23.23 0 00-.24-.23h-.61a.23.23 0 00-.23.23v.3a1.08 1.08 0 01-.1.41 1.54 1.54 0 01-.71.64 2.21 2.21 0 01-.88.1h-.81c-.09-.06-.15-.12-.15-.19v-4.55c0-.18.42-.36.74-.42a.07.07 0 00.07 0s0-.07 0-.07v-.93s0-.06-.07-.06H65.9s-.07 0-.07.06v.93s0 0 0 .07a.07.07 0 00.07 0c.33.06.74.24.74.42v4.55c0 .17-.41.36-.74.41a.09.09 0 00-.07 0s0 .07 0 .07v.93a.07.07 0 00.07.07h5.92a.23.23 0 00.23-.23v-.85a.3.3 0 000-.1" class="cls-1"/><path id="path3556" d="M99.92 54.63a6 6 0 01-.78 0 .94.94 0 01-.63-.39 3.53 3.53 0 01-.07-1v-3.46c0-.19.42-.37.73-.42 0 0 .06 0 .08 0a.1.1 0 000-.07v-.93a.08.08 0 00-.07-.07h-3.45a.07.07 0 00-.07.07v.93a.06.06 0 000 .07.09.09 0 00.07 0c.32 0 .74.23.74.42v3.89a3.54 3.54 0 00.16 1.24c.43.68 1.08 1.06 3 1.06h.38c2 0 2.71-.38 3.15-1.06a3.8 3.8 0 00.16-1.24v-3.89c0-.19.41-.37.73-.42a.09.09 0 00.07 0 .1.1 0 000-.07v-.93a.07.07 0 00-.07-.07h-3.45a.08.08 0 00-.08.07v.93a.1.1 0 000 .07.13.13 0 00.08 0c.31 0 .73.23.73.42v3.39a3.92 3.92 0 01-.06 1 1 1 0 01-.64.39 6 6 0 01-.78 0" class="cls-1"/><path id="path3560" d="M89.35 53.73a.23.23 0 00-.23-.24h-.61a.24.24 0 00-.24.24v.08a1.19 1.19 0 01-.64.82 2.47 2.47 0 01-1.08.18 2.42 2.42 0 01-1.07-.18 2 2 0 01-.79-.89 4.6 4.6 0 01-.26-1.74 4.33 4.33 0 01.22-1.88 1.66 1.66 0 011.58-.81 1.59 1.59 0 011.43.56.78.78 0 01.26.49v.08a.24.24 0 00.23.24h.61a.24.24 0 00.24-.24v-1.83a.27.27 0 00-.12-.27 8.88 8.88 0 00-2.35-.25 5.71 5.71 0 00-2.74.59 3.6 3.6 0 00-1.48 3.2c0 1.92.42 2.63.93 3.11a3.79 3.79 0 002.34 1 2.32 2.32 0 00.66.06h.27a5.16 5.16 0 00.71 0 6.82 6.82 0 001.91-.22.23.23 0 00.23-.24v-1.82z" class="cls-1"/><path id="path3564" d="M52.61 53.71v-1.83a.23.23 0 00-.23-.23h-2.75a.24.24 0 00-.24.23v.8a.24.24 0 00.24.24h1.06v1.67l-.15.08a2.44 2.44 0 01-1.08.18 2.42 2.42 0 01-1.07-.18 2 2 0 01-.79-.89 4.6 4.6 0 01-.25-1.78 4.33 4.33 0 01.22-1.88 1.65 1.65 0 011.57-.81 1.57 1.57 0 011.43.56.77.77 0 01.27.49v.08a.23.23 0 00.23.24h.61a.23.23 0 00.23-.24v-1.82a.29.29 0 00-.14-.27 8.79 8.79 0 00-2.35-.25 5.74 5.74 0 00-2.74.59 3.63 3.63 0 00-1.48 3.2c0 1.92.42 2.63.94 3.11a3.79 3.79 0 002.34 1 2.27 2.27 0 00.66.06h.26a5.09 5.09 0 00.71 0 14.06 14.06 0 002.26-.22.24.24 0 00.23-.24v-1.82z" class="cls-1"/><path id="path3568" d="M13.93 53.74a2 2 0 01-.79.89 2.5 2.5 0 01-1.05.18 2.47 2.47 0 01-1.09-.18 2 2 0 01-.79-.89A4.39 4.39 0 0110 52a4.33 4.33 0 01.22-1.88 1.65 1.65 0 011.57-.81h.53a1.49 1.49 0 011.58.81 4.33 4.33 0 01.25 1.88 4.6 4.6 0 01-.22 1.75m.85-5.06a5.5 5.5 0 00-2.59-.59H12a5.5 5.5 0 00-2.59.59 3.6 3.6 0 00-1.49 3.2c0 1.92.43 2.63.94 3.11a3.77 3.77 0 002.35 1 2.19 2.19 0 00.65.06h.34A5.16 5.16 0 0013 56a3.8 3.8 0 002.35-1c.51-.48.94-1.19.94-3.11a3.6 3.6 0 00-1.49-3.2" class="cls-1"/><path id="path3572" d="M56.71 54.78s-.08 0-.08 0c-.32 0-.73-.24-.73-.42v-4.57c0-.18.41-.36.73-.41 0 0 .06 0 .08 0a.13.13 0 000-.08v-.92a.07.07 0 00-.06-.07h-3.16a.07.07 0 00-.07.07v.92s0 0 0 .08a.09.09 0 00.07 0c.32 0 .74.23.74.41v4.54c0 .18-.42.37-.74.42a.09.09 0 00-.07 0s0 .07 0 .07v.93a.07.07 0 00.07.07h3.16a.07.07 0 00.06-.07v-.93a.1.1 0 000-.07" class="cls-1"/><path id="path3576" d="M65.48 54.78a.11.11 0 00-.07 0c-.33 0-.74-.24-.74-.42v-1c0-.81-.22-1.46-1.51-1.46a.09.09 0 110-.18h.21a1.5 1.5 0 001.29-1.5v-.43a1.45 1.45 0 00-1.45-1.45h-5.89a.07.07 0 00-.07.07v.92a.1.1 0 000 .08.09.09 0 00.07 0c.32 0 .74.23.74.41v4.54c0 .18-.42.37-.74.42a.09.09 0 00-.07 0 .08.08 0 000 .07v.93a.07.07 0 00.07.07h3.15a.06.06 0 00.07-.07v-.93s0 0 0-.07a.09.09 0 00-.07 0c-.32 0-.73-.24-.73-.42v-4.57c0-.09.11-.19.28-.27h1.81a.71.71 0 01.73.65v.33c0 .21-.31.82-.74.79h-1.13a.23.23 0 00-.23.23v.82a.23.23 0 00.23.24h1.21c.8 0 .77.51.78.71v2.13a1 1 0 000 .24c.05.16.33.18.33.18h2.39a.07.07 0 00.07-.07v-.93a.1.1 0 000-.07" class="cls-1"/><path id="path3580" d="M24.91 52.2a21.13 21.13 0 002.41.62c.73.11 1.06.47.94 1.11s-.85.77-1.24.78a4.62 4.62 0 01-1.32-.1 2.83 2.83 0 01-.68-.7l-.15-.37c0-.06-.08-.13-.21-.13H24c-.13 0-.18 0-.18.13v2.12c0 .2.3.25 1.15.25h2.24a3.55 3.55 0 001.67-.39 2.46 2.46 0 001.06-1.94c-.05-1.09-.12-1.68-.73-2.06a8 8 0 00-2.42-.62c-.74-.11-1.35-.23-1.35-.88s.85-.76 1.24-.78a2.45 2.45 0 01.88.1 1.07 1.07 0 01.53.38 4.19 4.19 0 01.27.57.24.24 0 00.24.24h.61c.19 0 .24 0 .23-.24v-2c0-.13-.76-.12-1.15-.12h-2.48a2.22 2.22 0 00-1.37.5 2.41 2.41 0 00-.74 1.73 1.64 1.64 0 001.21 1.77" class="cls-1"/><path id="path3584" d="M73.59 52.2a21.32 21.32 0 002.42.62c.73.11 1 .47.93 1.11s-.85.77-1.24.78a4.64 4.64 0 01-1.32-.1 3 3 0 01-.67-.7l-.16-.37c0-.06-.08-.13-.21-.13h-.67c-.13 0-.17 0-.17.13v2.12c0 .2.31.25 1.15.25h2.24a3.55 3.55 0 001.67-.39 2.44 2.44 0 001.06-1.94c0-1.09-.11-1.68-.73-2.06a8.11 8.11 0 00-2.42-.62c-.73-.11-1.35-.23-1.35-.88s.85-.76 1.24-.78a2.44 2.44 0 01.88.1 1 1 0 01.53.38 4.61 4.61 0 01.28.57.23.23 0 00.23.24h.61c.19 0 .24 0 .24-.24v-2c0-.13-.77-.12-1.15-.12h-2.49a2.22 2.22 0 00-1.37.5 2.5 2.5 0 00-.74 1.73 1.63 1.63 0 001.21 1.77" class="cls-1"/><path id="path3588" d="M113.91 52.2a21.68 21.68 0 002.41.62c.74.11 1.07.47 1 1.11s-.85.77-1.24.78a4.7 4.7 0 01-1.33-.1 3 3 0 01-.67-.7l-.15-.37c0-.06-.09-.13-.22-.13H113c-.13 0-.17 0-.17.13v2.12c0 .2.31.25 1.15.25h2.24a3.6 3.6 0 001.68-.39 2.46 2.46 0 001.1-1.94c0-1.09-.12-1.68-.74-2.06a8 8 0 00-2.41-.62c-.74-.11-1.36-.23-1.36-.88s.86-.76 1.24-.78a2.44 2.44 0 01.88.1 1 1 0 01.53.38 3.49 3.49 0 01.28.57.24.24 0 00.23.24h.61c.19 0 .24 0 .24-.24v-2c0-.13-.76-.12-1.14-.12h-2.48a2.24 2.24 0 00-1.38.5 2.45 2.45 0 00-.73 1.73 1.64 1.64 0 001.2 1.77" class="cls-1"/><path id="path3592" d="M37.09 54.88c-1.68 0-1.94-.62-1.94-1.56a1.51 1.51 0 01.55-1.12l3 2.39a3.4 3.4 0 01-1.58.29m-.38-5.71c.7 0 1.09.35 1.09.7s-.94.8-1.18.8h-.15a1.13 1.13 0 00-.33-.13c-.29-.15-.6-.39-.6-.64s.46-.73 1.17-.7m5.79 6.1c0-.09-.14-.06-.32-.09a.67.67 0 01-.29-.12l-.92-.68c.12-.24.22-.48.3-.65a5.58 5.58 0 00.18-1.42c0-.29.06-.81 0-.89a.43.43 0 00-.15-.05H40a.3.3 0 00-.11.06s0 .21 0 .21 0 .41 0 .62a2.13 2.13 0 01-.19 1l-1.9-1.52a2.38 2.38 0 001.67-1.9c0-1.26-1.16-1.77-2.76-1.79-1.8 0-3 .67-3 1.79a1.74 1.74 0 00.25.88l.07.06a1.88 1.88 0 00.44.45 2.71 2.71 0 00-1.28 2.17c0 1.57.71 2.65 3.75 2.74a5.52 5.52 0 002.9-.69l.3.14a.69.69 0 00.48.23h1.73c.13 0 .2 0 .2-.17v-.1a1 1 0 000-.34" class="cls-1"/></g></g></svg>