<svg xmlns="http://www.w3.org/2000/svg" viewBox="0 0 465.59 295.22"><defs><style>.cls-1{fill:#fff;}.cls-2{fill:#e61c16;}</style></defs><g id="Layer_2" data-name="Layer 2"><g id="Layer_1-2" data-name="Layer 1"><path class="cls-1" d="M29.36,288.62a14.26,14.26,0,0,1-6.88,1.74,16,16,0,0,1-12-5,19.31,19.31,0,0,1,0-25.5,16,16,0,0,1,12-5,14,14,0,0,1,6.88,1.77,14.45,14.45,0,0,1,5.11,4.59l4.59-2.56A19.21,19.21,0,0,0,22.48,250a22,22,0,0,0-16,6.32Q0,262.65,0,272.6t6.46,16.29a22,22,0,0,0,16,6.32q10.29,0,16.65-8.65L34.47,284A13.81,13.81,0,0,1,29.36,288.62Z"/><polygon class="cls-1" points="65.67 250.71 48.11 294.43 54.33 294.43 69.08 256.35 83.83 294.43 90.05 294.43 72.42 250.71 65.67 250.71"/><polygon class="cls-1" points="273.3 250.71 255.73 294.43 261.96 294.43 276.71 256.35 291.45 294.43 297.68 294.43 280.05 250.71 273.3 250.71"/><path class="cls-1" d="M119.87,250.71H102.31v43.71h5.44V277h12.12q6.3,0,10-3.8a13.77,13.77,0,0,0,0-18.75Q126.23,250.72,119.87,250.71Zm5.64,19.17a8.75,8.75,0,0,1-6.29,2.33H107.75V255.56h11.47a8.75,8.75,0,0,1,6.29,2.33,8.64,8.64,0,0,1,0,12Z"/><polygon class="cls-1" points="144.32 255.56 158.15 255.56 158.15 294.42 163.59 294.42 163.59 255.56 177.48 255.56 177.48 250.71 144.32 250.71 144.32 255.56"/><rect class="cls-1" x="191.24" y="250.71" width="5.44" height="43.71"/><polygon class="cls-1" points="231.42 288.46 216.67 250.71 210.44 250.71 228.01 294.42 234.76 294.42 252.39 250.71 246.16 250.71 231.42 288.46"/><polygon class="cls-1" points="303.57 255.56 317.4 255.56 317.4 294.42 322.84 294.42 322.84 255.56 336.74 255.56 336.74 250.71 303.57 250.71 303.57 255.56"/><rect class="cls-1" x="350.5" y="250.71" width="5.44" height="43.71"/><path class="cls-1" d="M392.64,250Q383,250,377,256.41t-6,16.19q0,9.76,6,16.19t15.66,6.42q9.57,0,15.63-6.42t6.07-16.19q0-9.77-6.07-16.19T392.64,250Zm11.64,35.36a16.05,16.05,0,0,1-22.69.61c-.21-.2-.41-.4-.61-.61a18.6,18.6,0,0,1-4.4-12.75q0-7.8,4.4-12.78a16.12,16.12,0,0,1,22.79-.51l.51.51q4.41,5,4.42,12.78a18.58,18.58,0,0,1-4.42,12.7Z"/><polygon class="cls-1" points="460.15 250.71 460.15 284.86 434.98 250.71 429.41 250.71 429.41 294.42 434.85 294.42 434.85 259.56 460.34 294.42 465.59 294.42 465.59 250.71 460.15 250.71"/><path class="cls-2" d="M214.23,59.91a49,49,0,0,0,0,90.68A69.7,69.7,0,0,1,214.23,59.91Z"/><path class="cls-2" d="M232.8,168.69a63.44,63.44,0,0,1,0-126.88c1.65,0,3.29.06,4.91.19a70,70,0,0,1,27.61-6.65,77.1,77.1,0,1,0,0,139.81,70.18,70.18,0,0,1-27.6-6.66C236.09,168.63,234.45,168.69,232.8,168.69Z"/><path class="cls-2" d="M299.91,167.45a91.56,91.56,0,1,1-5-129.39q2.59,2.4,5,5A69.88,69.88,0,0,1,338,104.25a105.25,105.25,0,1,0,0,2A69.89,69.89,0,0,1,299.91,167.45Z"/><path class="cls-2" d="M214.23,59.91a49,49,0,1,1,0,90.68,70.32,70.32,0,0,0,23.48,17.91,63.44,63.44,0,0,0,0-126.5A70.42,70.42,0,0,0,214.23,59.91Z"/><path class="cls-2" d="M265.32,35.35a77.09,77.09,0,0,1,0,139.81h2.43a70.15,70.15,0,0,0,32.17-7.75,91.35,91.35,0,0,0,0-124.39,70.15,70.15,0,0,0-32.17-7.75C266.93,35.31,266.13,35.32,265.32,35.35Z"/></g></g></svg>