<svg xmlns="http://www.w3.org/2000/svg" viewBox="0 0 210.41 210.42"><defs><style>.cls-1{fill:#e61c16;}</style></defs><g id="Layer_2" data-name="Layer 2"><g id="Слой_1" data-name="Слой 1"><path class="cls-1" d="M86.64,59.87a49,49,0,0,0,0,90.68,69.71,69.71,0,0,1,0-90.68Z"/><path class="cls-1" d="M105.21,168.65a63.44,63.44,0,0,1,0-126.88c1.65,0,3.29.06,4.91.19a70.12,70.12,0,0,1,27.61-6.65,77.1,77.1,0,1,0,0,139.81,70.3,70.3,0,0,1-27.61-6.66C108.5,168.59,106.86,168.65,105.21,168.65Z"/><path class="cls-1" d="M172.32,167.41a91.55,91.55,0,1,1,0-124.39,69.89,69.89,0,0,1,38.08,61.19A105.2,105.2,0,0,0,30.82,30.82,105.21,105.21,0,0,0,179.61,179.61a104.47,104.47,0,0,0,30.8-73.4A69.89,69.89,0,0,1,172.32,167.41Z"/><path class="cls-1" d="M86.64,59.87a49,49,0,1,1,0,90.68,70.34,70.34,0,0,0,23.48,17.91,63.44,63.44,0,0,0,0-126.5A70.47,70.47,0,0,0,86.64,59.87Z"/><path class="cls-1" d="M137.73,35.31a77.1,77.1,0,0,1,0,139.81c.8,0,1.61,0,2.42,0a70.24,70.24,0,0,0,32.17-7.75,91.37,91.37,0,0,0,0-124.39,70.16,70.16,0,0,0-32.18-7.75C139.34,35.27,138.54,35.28,137.73,35.31Z"/></g></g></svg>