<svg xmlns="http://www.w3.org/2000/svg" viewBox="0 0 238.96 238.93"><path fill="#fff" d="M0 0v238.93h239V0zm119.05 60h20.2l9.88 65.68L159.24 60h20v89.74H165.9V82.13l-11.22 67.58h-11.5l-10.83-67.58v67.45h-13.3zm-59.2 22.13c0-3.68 0-24 22.33-24 22.84 0 22.84 17.81 22.84 24v6.33H91.36v-6.33c0-3.44 0-11.72-9-11.72s-8.86 8.15-8.86 11.72v44c0 6.88 2.14 12.11 8.86 12.11s9-4.91 9-12.11v-14.25h-7.82v-10.8H105v48.63l-13.21-.13v-4.76c-1.12 1.82-6.44 6.59-14.08 6.58-12.9-.09-17.88-9-17.88-22.63zm119.47 97.28H59.77V160h119.55z" data-name="Layer 2"/></svg>