<svg xmlns="http://www.w3.org/2000/svg" viewBox="0 0 608.78 264.08"><defs><style>.cls-1{fill:#fff}</style></defs><g id="Layer_2" data-name="Layer 2"><g id="Layer_1-2" data-name="Layer 1"><path d="M6.22 0h31.37v59.67l67.27.48V.35L136.83 0v152.94h-31.07l.28-63.27-68.75-.82-.28 64.09H6.22V0zm33.5 256.76a31.85 31.85 0 01-4.62-.68 16.48 16.48 0 01-4.1-1.22 6.63 6.63 0 01-3-2.86 9.11 9.11 0 01-.77-4v-33.26h45v34.06a8.56 8.56 0 01-.94 4.28 5.73 5.73 0 01-3 2.46 14.05 14.05 0 01-4.21.81l-4.69.41v4.78h39.68v-4.78a31.66 31.66 0 01-4.62-.68 16.77 16.77 0 01-4.08-1.22A6.63 6.63 0 0187.3 252a9.26 9.26 0 01-.77-4v-69a10.82 10.82 0 01.77-4 4.83 4.83 0 013.07-2.7 31.51 31.51 0 014.08-1 30.69 30.69 0 014.62-.61v-4.79H59.35v4.79a25.39 25.39 0 014.48.81 24.74 24.74 0 014.42 1.5 6.09 6.09 0 013 2.8 8.78 8.78 0 01.88 4v29h-45v-29.74A10.63 10.63 0 0128 175a4.83 4.83 0 013.07-2.7 31.51 31.51 0 014.08-1 30.69 30.69 0 014.62-.61v-4.79H0v4.79a25.39 25.39 0 014.48.81A24.46 24.46 0 018.9 173a6.15 6.15 0 013 2.8 8.9 8.9 0 01.87 4v69a8.56 8.56 0 01-.94 4.28 5.73 5.73 0 01-3 2.46 14.14 14.14 0 01-4.22.81l-4.61.41v4.78h39.72z" class="cls-1"/><path d="M140.68 253.13a18.6 18.6 0 01-10.35 2.81 21.26 21.26 0 01-10.12-2.26 18.82 18.82 0 01-6.88-6.19 28.58 28.58 0 01-3.94-9.39 52.5 52.5 0 01-1.25-11.9h44v-4.45a39 39 0 00-1.52-11.12 25 25 0 00-4.62-8.91 22.19 22.19 0 00-8.43-6.27 30.72 30.72 0 00-12.47-2.29 27.52 27.52 0 00-12.78 2.93 29.38 29.38 0 00-9.55 7.72 35.9 35.9 0 00-6 11.23 40.12 40.12 0 00-2.06 12.71 47.83 47.83 0 001.92 13.69 32.51 32.51 0 005.84 11.33 27.43 27.43 0 009.94 7.69 32.81 32.81 0 0014.07 2.84 28.25 28.25 0 0016.12-4.72 34.18 34.18 0 0011.2-12.68l-4.72-2.9q-4.08 7.33-8.4 10.13zm-27.45-49a14.48 14.48 0 0111.77-5.85 11.59 11.59 0 016.95 1.95 13.76 13.76 0 014.25 5.05 24.89 24.89 0 012.06 7.19 55.9 55.9 0 01.63 8.07h-30.75q.4-10.54 5.09-16.37zm83.83 49.15a11.37 11.37 0 004 7.18 13.26 13.26 0 008.4 2.47 18.89 18.89 0 005.43-.72 94.48 94.48 0 005.56-1.85V256c-1.53 0-3 0-4.48-.06a6.91 6.91 0 01-3.21-.68 7.26 7.26 0 01-2.79-2.63 8.18 8.18 0 01-.91-4.18q0-8.84.2-16.28t.2-17.1a29 29 0 00-1.79-11 15.63 15.63 0 00-5.22-6.78 18.2 18.2 0 00-7.65-3.29 54.89 54.89 0 00-9.88-.78 29.08 29.08 0 00-8.43 1.31 31.17 31.17 0 00-7.35 3.21 21.87 21.87 0 00-5.7 5.06 9.46 9.46 0 00-.61 11.29 5.52 5.52 0 005 2.4 8.34 8.34 0 005.9-2 5.77 5.77 0 002.13-4.31 21 21 0 00-.64-4.86 18.38 18.38 0 01-.65-4 10.44 10.44 0 013.75-2.19 15.56 15.56 0 015.76-1c3 0 5.34.62 7 1.86a13.52 13.52 0 013.81 4.35 14.17 14.17 0 011.59 4.72 27.62 27.62 0 01.37 3.37v6.68a92.79 92.79 0 01-12.51 4.85Q175 227 172 228.19a40.1 40.1 0 00-5.19 2.53 16.06 16.06 0 00-4.45 3.61 16.47 16.47 0 00-3.24 5.46 20.48 20.48 0 00-1.08 6.88 15.8 15.8 0 004.82 12 17.1 17.1 0 0012.31 4.59 26.38 26.38 0 0012.11-2.56 33 33 0 009.41-7.42zm-6.67.3a15.35 15.35 0 01-8.44 2.33 10.77 10.77 0 01-7.45-2.63q-2.92-2.64-2.93-8.25a13.88 13.88 0 012-7.47 18.37 18.37 0 015.33-5.44 40.56 40.56 0 018-4.05c2.87-1.09 6.23-2.19 10.05-3.32l-.41 23.32a24.47 24.47 0 01-6.15 5.51zm43.52.58a5 5 0 01-2.83 2.12 16.16 16.16 0 01-2.9.51l-3.31.3v4.45h32.44v-4.45a21 21 0 01-3.27-.47 16.18 16.18 0 01-2.93-1 5.56 5.56 0 01-2.83-2.33 7.61 7.61 0 01-.88-3.88v-83.68l-1-1-25 1.49v4.32a40.25 40.25 0 015.19.8 13.91 13.91 0 014.45 1.49 8.84 8.84 0 012.73 3.34 10.15 10.15 0 011 4.55v69.5a7.38 7.38 0 01-.86 3.94zm33.78 5.71q3.4 4.2 11.77 4.21a31.9 31.9 0 009.58-1.25q3.9-1.24 8.3-3.07v-4.92a22.08 22.08 0 01-4.62.77c-2.19.21-3.84.31-5 .31a13.74 13.74 0 01-5.8-1 6.93 6.93 0 01-3.24-3 13 13 0 01-1.45-4.89 67.25 67.25 0 01-.3-7v-37.12h18.95v-6.48h-19.05v-20.7h-12.27v20.7h-12.28v6.48h12V248c.01 5.09 1.14 9.05 3.41 11.87zm83.65-5.71a4.81 4.81 0 01-2.8 2.12 12.89 12.89 0 01-3.1.54l-3.44.27v4.45h32.71v-4.45a20.55 20.55 0 01-3.3-.44 21.46 21.46 0 01-2.81-.91 5.49 5.49 0 01-2.82-2.26 7.42 7.42 0 01-.85-3.81v-34.59q0-10.59-4.8-16.22t-13.71-5.64a26.26 26.26 0 00-7.8 1.08 25.53 25.53 0 00-6 2.7 31.4 31.4 0 00-4.8 3.61q-1.83 1.72-4.06 3.94h-.27v-38.82l-.94-1-24.61 1.49v4.32c1.25.09 2.91.25 5 .5a9.77 9.77 0 014.28 1.25 7.94 7.94 0 012.73 3.44 11 11 0 011.05 4.59v69.9a7.38 7.38 0 01-.94 3.95 5 5 0 01-2.81 2.12 15.84 15.84 0 01-2.81.51l-3.22.3v4.45h32.48v-4.45a24.88 24.88 0 01-3.47-.47 14.84 14.84 0 01-3.06-1 5.79 5.79 0 01-2.8-2.3 7.06 7.06 0 01-.92-3.77V211.3c.46-.77 1.09-1.71 1.9-2.83a15.84 15.84 0 013.51-3.38 24.45 24.45 0 015.38-2.73 18.63 18.63 0 016.52-1.11 10.4 10.4 0 018.14 3.84q3.35 3.84 3.35 10.93v34.19a7.57 7.57 0 01-.91 3.95z" class="cls-1"/><path d="M379.22 203.81a36.16 36.16 0 00-6.37 11.1 38.56 38.56 0 00-2.19 13.09q0 16.11 8.16 25.69t22.59 9.58a27.54 27.54 0 0015-4.66A34.76 34.76 0 00428.18 246l-4.3-2.83a31.23 31.23 0 01-8.19 9.56 18.22 18.22 0 01-10.94 3.18q-9 0-14.58-7.92t-5.55-20.47a53.14 53.14 0 011.54-13.69 27.17 27.17 0 014-9.1 15.93 15.93 0 015.68-5.1 14.32 14.32 0 016.16-1.38 18.16 18.16 0 015.15.71 5.92 5.92 0 013.59 2.79 34.06 34.06 0 01-.94 4.67 25.25 25.25 0 00-.81 6.22 6 6 0 002.19 4.5 8.76 8.76 0 006.17 2c2.48 0 4.25-.87 5.33-2.6a11 11 0 001.62-6 15.22 15.22 0 00-6.14-12.79q-6.13-4.68-15.92-4.68a29.48 29.48 0 00-13.08 2.93 29.93 29.93 0 00-9.94 7.81zm108.08 51.46a7.44 7.44 0 01-2.8-2.63 8.33 8.33 0 01-.91-4.18q0-8.84.2-16.29t.2-17.09a29 29 0 00-1.78-11 15.51 15.51 0 00-5.23-6.78 18.13 18.13 0 00-7.65-3.34 55 55 0 00-9.88-.77 29 29 0 00-8.43 1.31 31 31 0 00-7.35 3.21 22 22 0 00-5.7 5 9.44 9.44 0 00-.61 11.3 5.54 5.54 0 005 2.39 8.4 8.4 0 005.9-1.95 5.82 5.82 0 002.12-4.32 20.43 20.43 0 00-.64-4.85 18.32 18.32 0 01-.64-4 10.47 10.47 0 013.74-2.2 15.82 15.82 0 015.77-1q4.51 0 7 1.85a13.52 13.52 0 013.81 4.35A14.22 14.22 0 01471 209a29.89 29.89 0 01.37 3.37v6.67a92.42 92.42 0 01-12.51 4.86q-9.29 3.1-12.31 4.25a39.34 39.34 0 00-5.19 2.52 17 17 0 00-7.69 9.08 20.4 20.4 0 00-1.08 6.88 15.81 15.81 0 004.82 12 17.13 17.13 0 0012.31 4.59 26.31 26.31 0 0012.1-2.57 32.67 32.67 0 009.41-7.42h.41a11.35 11.35 0 004 7.19 13.23 13.23 0 008.39 2.46 18.81 18.81 0 005.43-.71c1.6-.47 3.45-1.09 5.57-1.85V256c-1.53 0-3 0-4.49-.07a6.76 6.76 0 01-3.24-.66zM471.05 248a24.48 24.48 0 01-6.14 5.5 15.26 15.26 0 01-8.43 2.34 10.71 10.71 0 01-7.45-2.64c-2-1.76-2.94-4.5-2.94-8.24a13.86 13.86 0 012-7.47 18.13 18.13 0 015.33-5.44 40 40 0 018-4.06q4.32-1.62 10.05-3.31zm77.42-51.81a9.17 9.17 0 00-6.91-2.76 19.69 19.69 0 00-9.38 2.83 30.26 30.26 0 00-9.3 8.29h-.34v-9.37l-.94-.94-22.12 1.48v4.45a26.42 26.42 0 013.77.51 9.1 9.1 0 013 1.18 8.15 8.15 0 012.73 3.23 9.36 9.36 0 011 4.11v41a7.53 7.53 0 01-.92 3.94 4.79 4.79 0 01-2.79 2.12 12.32 12.32 0 01-2.87.54l-3.2.27v4.45h35.07v-4.45a77.1 77.1 0 01-4.62-.47 18.17 18.17 0 01-4.35-1 5.53 5.53 0 01-2.87-2.23 7.32 7.32 0 01-.91-3.84v-38.7a22 22 0 017.22-7.29Q534 201 537.18 201c-.14.81-.28 1.62-.44 2.43a13.94 13.94 0 00-.24 2.69 5.93 5.93 0 002 4.32 7.88 7.88 0 005.77 2 5.71 5.71 0 005.19-2.67 11.18 11.18 0 001.68-6.1 10.22 10.22 0 00-2.67-7.48zm47.2 56.94a18.6 18.6 0 01-10.35 2.81 21.21 21.21 0 01-10.12-2.26 18.74 18.74 0 01-6.88-6.19 28.59 28.59 0 01-4-9.39 52.53 52.53 0 01-1.24-11.9h44v-4.45a39 39 0 00-1.52-11.12 25 25 0 00-4.62-8.91 22.27 22.27 0 00-8.43-6.27 30.74 30.74 0 00-12.48-2.29 27.58 27.58 0 00-12.78 2.93 29.24 29.24 0 00-9.54 7.72 35.7 35.7 0 00-6 11.23 40.12 40.12 0 00-2.06 12.71 47.83 47.83 0 001.92 13.69 32.49 32.49 0 005.83 11.33 27.55 27.55 0 009.95 7.69 32.73 32.73 0 0014.06 2.84 28.25 28.25 0 0016.12-4.72 34.1 34.1 0 0011.19-12.68l-4.65-2.9q-4.07 7.33-8.4 10.13zm-27.45-49a14.47 14.47 0 0111.78-5.85 11.56 11.56 0 016.94 1.95 13.67 13.67 0 014.25 5.05 24.58 24.58 0 012.06 7.19 54.59 54.59 0 01.64 8.07h-30.76q.41-10.54 5.09-16.37zM206.6 150.84c33.18 7.38 64.22-5 80.58-32 5.6-9.25 5.6-9.26-3.9-13.77-1.19-.57-2.39-1.11-3.59-1.66-3.94-1.79-8.39-5.62-11.67-4.8-3.48.88-6 6.08-8.69 9.56-20.36 26.08-62.42 20.27-74.9-10.37-3.51-8.59-4.23-17.5-3.61-26.66a44.36 44.36 0 0130.59-39.64c18.36-5.82 36.63-.13 48.5 15.15a64.5 64.5 0 014.58 6.46c1.79 3 3.82 3.77 7 1.94 5.39-3.1 10.9-6 16.42-8.89 3-1.55 3.48-3.53 1.9-6.46-9.44-17.53-22.89-30.36-42.45-35.8A106.64 106.64 0 00229.78.23a51.84 51.84 0 00-9.07 0c-22.56 1.73-33 7.74-44 17.31-21.86 19-28.49 43.52-25.23 71.52 3.59 30.42 25.6 55.21 55.12 61.78zm83.4 2.97h31.13L333.25 121c1.84-2.58 4.54-3.42 8.61-3a95.9 95.9 0 0014 .06c13.24-.5 22.73-9 24.59-21.66.72-4.9-.24-7.41-5.86-7.11-7.56.41-26.74.29-29.62 0 3.61-9.84 20.35-56 20.35-56l1.63.12c1.45 3.81 49 120.47 49 120.47h31.8c0-.1 0 .1-.08 0C428.72 106.26 384.18 0 384.18 0H348zm191.23-41.04c9.63.08 14.37 4.81 14.53 14.56.09 5.91-.19 11.84.28 17.72a18.35 18.35 0 0019.51 17.1c0-16 .7-31.79-.22-47.45-.72-12.08-11.33-21.38-23.46-21.7-14-.44-28-.12-41.95-.27-4-.05-4.56 1.66-3.75 5.15 1.81 7.85 9.5 14.3 18.52 14.79 5.5.24 11.03.06 16.54.1zM449.89 70c13.58-.15 27.19.29 40.76-.17 14.71-.49 25-11.83 25.05-26.72 0-6.1 0-12.21 0-18.32 0-6.89-.15-13.79 0-20.67.12-4.06-1.63-4.62-5.09-3.84C503 2 496.52 9.61 496 18.24c-.36 5.69-.14 11.42-.23 17.13-.14 9.62-4.88 14.54-14.48 14.83-5.71.18-11.43-.09-17.13.1-8.42.27-16.3 6.85-18 14.54-.73 3.32-.45 5.23 3.73 5.16zm102.22-.69c15.59 1.22 31.35.29 47 .29 1.51-9.8-6.88-18.95-17.58-19.31-5.7-.19-11.42.09-17.12-.09-9.69-.32-14.33-5.2-14.41-14.82 0-5.32.16-10.63 0-15.94C549.5 8.37 541.16.05 530.67.36a10.34 10.34 0 00-.52 2.06c0 13.77-.19 27.55 0 41.32s8.46 24.52 21.96 25.57zm3.46 23.5c-15.1.31-25.29 10.83-25.47 26-.16 13-.06 26 0 39a37.5 37.5 0 00.51 4.43c10.42.66 19-7.79 19.36-18.89.2-5.5 0-11 0-16.52.11-9 4.9-13.86 13.81-14 5.7-.08 11.42.14 17.11-.16 11-.59 18.93-8.77 18.46-19.88-14.76-.05-29.28-.28-43.78.02zm-45.89-16.56a4.29 4.29 0 000 4.39 51.7 51.7 0 015.1 4.69c1.78 1.93 2.48 3.09 4.85 5.62a3.37 3.37 0 002.57.9 4.41 4.41 0 002.61-.9c2-2 3.07-4.07 4.64-5.62 1.9-1.89 3.76-2.75 5.72-4.69.94-.93.72-3.73 0-4.39-2.48-2.29-3.43-3.35-5.49-5.4s-3.07-4.76-4.9-6.83a4.49 4.49 0 00-5.21 0c-2.06 2.09-2.65 4.76-4.58 6.79s-3.09 3.37-5.31 5.44z" class="cls-1"/></g></g></svg>