<svg xmlns="http://www.w3.org/2000/svg" viewBox="0 0 359.53 86.66"><defs><style>.cls-1{fill:#fff}</style></defs><g id="Layer_2" data-name="Layer 2"><g id="Layer_1-2" data-name="Layer 1"><path d="M178.46 44.23l-4.63 9.82h-4.19l-.45-9.82h-.16L167 54.05h-4.4l3.06-14.7h7.23l.11 8.45h.19l3.58-8.45h7.44l-3.05 14.7h-4.64l2.12-9.82h-.18zM197.4 48.38l-.28-5.57H197l-2.7 5.57zm-2.91-9h6.7l1 14.69h-4.8l-.07-2.6H193l-1.17 2.6h-4.52zM231.42 42.82h-3.22l.72-3.47h11.24l-.72 3.47h-3.22l-2.34 11.23h-4.8l2.34-11.23zM259.32 39.35h6.51l1.43 8.78h.14l1.83-8.78h4.56l-3.05 14.7h-6.51L263 45.06h-.16l-1.87 8.99h-4.71l3.06-14.7zM216.55 45.47c1.36 0 1.94-.67 1.94-1.56 0-.73-.42-1.09-1.4-1.09h-1.21l-.55 2.65zm-4.8-6.14h7.09c3.46 0 4.68 1.92 4.68 3.75a3.84 3.84 0 01-3.52 3.79v.2a2.22 2.22 0 012 2.41c0 1-.21 2-.21 3.23A9.53 9.53 0 00222 54h-5.14a8.14 8.14 0 01-.08-.85c0-1.23.34-2.09.34-3.44a1.08 1.08 0 00-.93-1.21 1.41 1.41 0 00-.29 0h-1.24l-1.18 5.5h-4.73zM246.25 39.35h4.8L248 54.05h-4.81l3.06-14.7zM3.06 39.35h4.8L5.53 50.58h4.7l-.69 3.47H0l3.06-14.7zM58.64 39.35h4.8l-1.31 6.32h.12l4.25-6.32h5.12l-5.31 6.94 2.66 7.76h-5.12l-1.99-6.53h-.12l-1.35 6.53h-4.81l3.06-14.7zM83.55 48.54h-2.86l-1.15 5.51h-4.81l3.06-14.7h4.81l-1.15 5.52h2.87l1.14-5.52h4.81l-3.06 14.7H82.4l1.15-5.51zM117.33 39.35h10.1l-.73 3.47h-5.29l-.45 2.17h4.8l-.73 3.46h-4.79l-.44 2.13h5.53l-.72 3.47h-10.34l3.06-14.7zM98.92 39.35h10.1l-.72 3.47H103l-.45 2.17h4.8l-.73 3.46h-4.79l-.44 2.13h5.53l-.72 3.47H95.86l3.06-14.7zM22.59 50.58c2.11 0 3-5.25 3-6.46a1.16 1.16 0 00-1-1.29h-.25c-2.17 0-3 5.34-3 6.45a1.14 1.14 0 001 1.29.82.82 0 00.27 0m2.28-11.43c3.57 0 5.5 2 5.5 5.19 0 3.86-2 9.91-8.29 9.91-3.48 0-5.51-1.92-5.51-5.16 0-4.27 2.21-9.94 8.3-9.94M139 50.58h1.4c1.95 0 3.3-2.57 3.3-5.74 0-1.15-.51-2-2.23-2h-.86zm-2.46-11.25H142c4.64 0 6.56 2.6 6.56 5.47 0 5.46-3.44 9.22-9.2 9.22h-5.86zM48.75 48.54a6.76 6.76 0 01-7.08 5.71c-3.55 0-5.5-2-5.5-5.17 0-3.7 1.89-9.93 8.3-9.93 2.94 0 5.29 1.09 5.21 4.22a14.73 14.73 0 01-.14 1.49h-4.47a7 7 0 00.09-.92 1.06 1.06 0 00-1-1.11H44c-2.2 0-3 5.28-3 6.46a1.14 1.14 0 001 1.28 1 1 0 00.24 0c.74 0 1.42-.57 2-2z" class="cls-1"/><path d="M359.5 29.79h-32.63C331.15 13.67 335 0 335 0s-14.69 15.71-27.74 29.79l-129.35.27 126.15 3.18a603.49 603.49 0 00-15 16.41h.05c.42-.37 17.88-16.29 17.88-16.29l15.35.39-2.31 12.11-71.91 40.64-.29.16s57.12-30 71.54-37.3c0 0-5.06 26.42-5.06 26.53l.06-.26c.47-1.72 3.5-12.11 7.63-27.48 18.77-9.58 37.53-18.36 37.53-18.36m-33.87-13.46l-2.58 13.49h-12.23zm.08 17.48l14.87.38-17.61 10c1-3.55 1.82-6.79 2.79-10.37" class="cls-1"/></g></g></svg>