<svg xmlns="http://www.w3.org/2000/svg" viewBox="0 0 1006.03 158.39"><defs><style>.cls-1{fill:#fff;}</style></defs><g id="Layer_2" data-name="Layer 2"><g id="Layer_1-2" data-name="Layer 1"><polygon class="cls-1" points="0 0 21.82 39.42 91.52 39.42 91.52 145.02 115.8 158.39 139.74 144.66 139.74 39.77 210.13 39.77 231.61 0 0 0"/><path class="cls-1" d="M264.79,0h55.9l86.69,158.36H351.54l-20-35.9h-78l-19.63,35.9H178.09ZM324,93.23,292.39,38.14,261.13,93.23Z"/><path class="cls-1" d="M378.66,0h38.51L518.5,94.7V0h48.77V158.39H526.42L425.09,64v94.43H378.66Z"/><path class="cls-1" d="M529.44,0H568L669.28,94.7V0h48.77V158.39H677.19L575.86,64v94.43H529.44Z"/><path class="cls-1" d="M677.42,0H827L805.31,28.52H718.85V129.9h86.46L827,158.39H677.42Z"/><path class="cls-1" d="M827.75,0H929.6q38.22,0,57.32,14.38t19.11,40a39.92,39.92,0,0,1-11.19,28q-11.19,12-31.15,18a33.26,33.26,0,0,1,7.4,5.9,64.64,64.64,0,0,1,6.71,9.34L1004,158.39H946.13l-24.79-40.33a17.72,17.72,0,0,0-7.92-7.62q-4.81-2.22-13.77-2.21H874.17v50.16H827.75Zm87.39,77.7q16.53,0,25.48-5.9t9-17.46q0-23.85-32-23.85H874.17V77.73Z"/><polygon class="cls-1" points="739.87 100.67 718.75 78.53 739.87 56.39 761.27 56.39 761.27 100.67 739.87 100.67"/></g></g></svg>